# xmcd
#
# Track frame offsets:
#	150
#	65371
#	82827
#	100530
#	118051
#	130459
#	165129
#	217584
#
# Disc length: 3832 seconds
#
# Revision: 0
# Processed by: cddbd v1.4PL0 Copyright (c) Steve Scherf et al.
# Submitted via: dBpowerAMP V4.0
#
DISCID=560ef608
DTITLE=Eric Clapton and Duane Allman - Criteria Studios - Miami, FL - Augus 27,1970 - Disc 2
DYEAR=1970
DGENRE=
TTITLE0=Jam
TTITLE1=Gonna Pack My Blues And Go
TTITLE2=Gonna Pack My Blues And Go
TTITLE3=It's Too Late
TTITLE4=Jam
TTITLE5=Key To The Highway
TTITLE6=Tell The Truth
TTITLE7=Why Does Love Got To Be Sad
EXTD=
EXTT0=
EXTT1=
EXTT2=
EXTT3=
EXTT4=
EXTT5=
EXTT6=
EXTT7=
PLAYORDER=
